<svg width="275" height="52" viewBox="0 0 275 52" xmlns="http://www.w3.org/2000/svg"><title>Group 2</title><g fill="none" fill-rule="evenodd"><path d="M7.45 21.76c.33.41.51.923.51 1.45h16.21c0-.527-.18-1.04-.51-1.45l-7.41-9.26a2.32 2.32 0 0 0-1.81-.87H4.17a2.32 2.32 0 0 0-1.81 3.76l5.09 6.37zm9.27 14.48a2.31 2.31 0 0 1-.51-1.45H0c0 .527.18 1.04.51 1.45l7.41 9.26c.44.55 1.106.87 1.81.87H20a2.32 2.32 0 0 0 1.81-3.76l-5.09-6.37z" fill="#A6A7AA"/><path d="M16.72 33.34l6.95-8.69c.33-.41.51-.923.51-1.45H8c0 .527-.18 1.04-.51 1.45L.54 33.34c-.33.41-.51.923-.51 1.45h16.21a2.31 2.31 0 0 1 .48-1.45z" fill="#848588"/><path d="M36.54 10.18l5.1-6.37A2.32 2.32 0 0 0 39.83.05H29.55c-.704 0-1.37.32-1.81.87l-7.41 9.26c-.33.41-.51.923-.51 1.45H36a2.31 2.31 0 0 1 .54-1.45zm-9.26 14.48l-5.1 6.37a2.32 2.32 0 0 0 1.81 3.76h10.28c.704 0 1.37-.32 1.81-.87l7.41-9.26c.33-.41.51-.923.51-1.45H27.79c0 .527-.18 1.04-.51 1.45z" fill="#C5DA45"/><path d="M36.54 13.08a2.31 2.31 0 0 1-.51-1.45H19.82c0 .527.18 1.04.51 1.45l6.95 8.69c.33.41.51.923.51 1.45H44c0-.527-.18-1.04-.51-1.45l-6.95-8.69z" fill="#E0E55B"/><path d="M79.62 41.1a.81.81 0 0 1-.08.37.61.61 0 0 1-.34.26 3 3 0 0 1-.74.16 12 12 0 0 1-1.27.05 9.65 9.65 0 0 1-1.12-.05 2.47 2.47 0 0 1-.7-.17 1 1 0 0 1-.41-.33 2.09 2.09 0 0 1-.25-.53l-3.14-8a28.027 28.027 0 0 0-1.15-2.52 8.11 8.11 0 0 0-1.41-2A5.8 5.8 0 0 0 67.1 27a6.92 6.92 0 0 0-2.66-.46h-3V41.1a.6.6 0 0 1-.12.37.79.79 0 0 1-.37.25 3.61 3.61 0 0 1-.69.16 9.12 9.12 0 0 1-2.19 0 3.94 3.94 0 0 1-.7-.16.7.7 0 0 1-.37-.25.65.65 0 0 1-.11-.37V9.52a1.7 1.7 0 0 1 .54-1.44 1.87 1.87 0 0 1 1.15-.41h7.25c.86 0 1.577.023 2.15.07l1.54.15A13.07 13.07 0 0 1 73 9a8.29 8.29 0 0 1 2.54 1.87 7.55 7.55 0 0 1 1.54 2.6 9.69 9.69 0 0 1 .51 3.23 9.53 9.53 0 0 1-.46 3.07 7.43 7.43 0 0 1-1.33 2.4 8.81 8.81 0 0 1-2.08 1.81A13.35 13.35 0 0 1 71 25.27a6.45 6.45 0 0 1 1.53.94 7.92 7.92 0 0 1 1.28 1.36 12.69 12.69 0 0 1 1.12 1.82c.353.667.703 1.44 1.05 2.32l3.06 7.51c.247.633.403 1.077.47 1.33.058.178.095.363.11.55zm-6.83-24a6.11 6.11 0 0 0-.9-3.39 5.07 5.07 0 0 0-3-2 8.6 8.6 0 0 0-1.49-.26c-.553-.053-1.28-.08-2.18-.08H61.4v11.5h4.43a9.83 9.83 0 0 0 3.1-.44 6.12 6.12 0 0 0 2.18-1.21 4.72 4.72 0 0 0 1.28-1.83 6.29 6.29 0 0 0 .4-2.25v-.04zM105 28.24a1.82 1.82 0 0 1-.52 1.46 1.78 1.78 0 0 1-1.18.44H87.66a14.65 14.65 0 0 0 .4 3.56 6.86 6.86 0 0 0 1.33 2.72 6 6 0 0 0 2.41 1.74 9.6 9.6 0 0 0 3.63.61 14.85 14.85 0 0 0 3-.28 17.87 17.87 0 0 0 2.29-.62 15.443 15.443 0 0 0 1.59-.62 2.61 2.61 0 0 1 .94-.28.58.58 0 0 1 .56.37c.063.164.103.335.12.51a6.9 6.9 0 0 1 0 .8 5.9 5.9 0 0 1 0 .59c0 .17 0 .32-.07.45a1.15 1.15 0 0 1-.13.36 1.52 1.52 0 0 1-.24.3 3.88 3.88 0 0 1-.86.47 12.45 12.45 0 0 1-1.85.65 25.88 25.88 0 0 1-2.62.57 19.17 19.17 0 0 1-3.18.25 14.71 14.71 0 0 1-5.13-.82 9.51 9.51 0 0 1-3.7-2.43 10.37 10.37 0 0 1-2.27-4 18.79 18.79 0 0 1-.76-5.64 17.78 17.78 0 0 1 .79-5.5 11.65 11.65 0 0 1 2.28-4.14 10 10 0 0 1 3.6-2.61 11.8 11.8 0 0 1 4.72-.91 11.42 11.42 0 0 1 4.76.9 9 9 0 0 1 3.23 2.41 9.71 9.71 0 0 1 1.86 3.56c.402 1.418.6 2.886.59 4.36v.79l.05-.02zm-4.38-1.29a7.93 7.93 0 0 0-1.53-5.38 5.81 5.81 0 0 0-4.76-2 6.3 6.3 0 0 0-2.84.61 6.15 6.15 0 0 0-2 1.61 7.37 7.37 0 0 0-1.27 2.33 9.74 9.74 0 0 0-.5 2.78h12.95l-.05.05zm28.86 14.21a.56.56 0 0 1-.21.47 1.48 1.48 0 0 1-.58.24 5.54 5.54 0 0 1-1.08.08 6 6 0 0 1-1.09-.08 1.29 1.29 0 0 1-.59-.24.59.59 0 0 1-.18-.47v-2.37a11.72 11.72 0 0 1-3.47 2.58 9.19 9.19 0 0 1-4 .92 11 11 0 0 1-3.39-.49 7.32 7.32 0 0 1-2.58-1.41 6.33 6.33 0 0 1-1.66-2.27 7.5 7.5 0 0 1-.59-3.06 7.08 7.08 0 0 1 .82-3.48 6.79 6.79 0 0 1 2.35-2.45 11.55 11.55 0 0 1 3.74-1.46 23.25 23.25 0 0 1 5-.49h3.27v-1.85a9.18 9.18 0 0 0-.29-2.43 4.16 4.16 0 0 0-.94-1.75 4 4 0 0 0-1.67-1.05 7.81 7.81 0 0 0-2.53-.36 10.09 10.09 0 0 0-2.89.38 15.47 15.47 0 0 0-2.24.84 15.03 15.03 0 0 0-1.61.84 2.22 2.22 0 0 1-1 .38.65.65 0 0 1-.37-.11.89.89 0 0 1-.28-.32 1.63 1.63 0 0 1-.17-.54 4.55 4.55 0 0 1-.05-.73 4.61 4.61 0 0 1 .09-1 1.51 1.51 0 0 1 .45-.73 5.76 5.76 0 0 1 1.23-.8 13.53 13.53 0 0 1 2-.84 18.31 18.31 0 0 1 2.48-.63 14.8 14.8 0 0 1 2.72-.25 14.27 14.27 0 0 1 4.35.58 7 7 0 0 1 2.9 1.7 6.59 6.59 0 0 1 1.61 2.78 13.49 13.49 0 0 1 .5 3.88v16l-.05-.01zm-4.32-10.84h-3.72a14 14 0 0 0-3.11.3 6.4 6.4 0 0 0-2.19.9 3.71 3.71 0 0 0-1.28 1.42 4.27 4.27 0 0 0-.41 1.91 3.83 3.83 0 0 0 1.17 2.94 4.63 4.63 0 0 0 3.28 1.09 6.11 6.11 0 0 0 3.18-.87 13.68 13.68 0 0 0 3.07-2.66v-5l.01-.03zm16.66 10.81a.59.59 0 0 1-.11.36.82.82 0 0 1-.34.25 2.45 2.45 0 0 1-.66.16 9 9 0 0 1-1.08.05 8.74 8.74 0 0 1-1.05-.05 2.65 2.65 0 0 1-.67-.16.72.72 0 0 1-.34-.25.64.64 0 0 1-.09-.36V5.9a.71.71 0 0 1 .09-.37.68.68 0 0 1 .34-.26 2.65 2.65 0 0 1 .67-.16 8.74 8.74 0 0 1 1.05-.05 9 9 0 0 1 1.08.05c.226.022.448.076.66.16a.78.78 0 0 1 .34.26.65.65 0 0 1 .11.37v35.23zm26.87-8.91a9.9 9.9 0 0 1-.88 4.27 9.17 9.17 0 0 1-2.45 3.18 10.62 10.62 0 0 1-3.69 2 15.36 15.36 0 0 1-4.57.66 16.35 16.35 0 0 1-3.18-.29 17.43 17.43 0 0 1-2.61-.71 12.52 12.52 0 0 1-1.92-.87 5.13 5.13 0 0 1-1.08-.76 1.93 1.93 0 0 1-.45-.8 4.73 4.73 0 0 1-.15-1.31 7.17 7.17 0 0 1 .05-1 2.34 2.34 0 0 1 .16-.62.69.69 0 0 1 .26-.33.72.72 0 0 1 .37-.09 2.15 2.15 0 0 1 1 .45 16.3 16.3 0 0 0 1.73 1 16.8 16.8 0 0 0 2.54 1 11.65 11.65 0 0 0 3.44.46 8.76 8.76 0 0 0 2.7-.4 6.35 6.35 0 0 0 2.11-1.12 4.84 4.84 0 0 0 1.36-1.78 5.79 5.79 0 0 0 .47-2.4 4.51 4.51 0 0 0-.66-2.48 6.64 6.64 0 0 0-1.74-1.81 15.38 15.38 0 0 0-2.47-1.42l-2.83-1.32a30.71 30.71 0 0 1-2.82-1.49 12 12 0 0 1-2.45-1.92 8.93 8.93 0 0 1-1.75-2.6 8.64 8.64 0 0 1-.67-3.57 8.94 8.94 0 0 1 .78-3.81 7.85 7.85 0 0 1 2.16-2.81 9.66 9.66 0 0 1 3.3-1.73 13.86 13.86 0 0 1 4.13-.59 13.41 13.41 0 0 1 2.28.2 15.56 15.56 0 0 1 2.16.53 12.1 12.1 0 0 1 1.81.74c.36.176.696.398 1 .66a2 2 0 0 1 .33.4c.059.117.103.242.13.37.04.178.066.358.08.54v.82a8 8 0 0 1 0 .84c-.02.21-.06.418-.12.62a.76.76 0 0 1-.22.37.51.51 0 0 1-.33.12 2.12 2.12 0 0 1-.91-.37c-.413-.247-.92-.523-1.52-.83a13.39 13.39 0 0 0-2.12-.84 9.26 9.26 0 0 0-2.75-.38 7.28 7.28 0 0 0-2.48.38 5.08 5.08 0 0 0-1.74 1 4 4 0 0 0-1 1.5 5 5 0 0 0-.34 1.85 4.45 4.45 0 0 0 .66 2.45 6.72 6.72 0 0 0 1.75 1.82 15.54 15.54 0 0 0 2.49 1.45l2.85 1.33c.967.447 1.917.94 2.85 1.48a11.92 11.92 0 0 1 2.49 1.9A8.65 8.65 0 0 1 168 28.7a8.5 8.5 0 0 1 .69 3.52zm27.82-3.32a21.37 21.37 0 0 1-.67 5.59 12.18 12.18 0 0 1-2 4.21 8.85 8.85 0 0 1-3.23 2.66 10 10 0 0 1-4.4.94 8.51 8.51 0 0 1-2-.21 7.46 7.46 0 0 1-1.75-.66 10.18 10.18 0 0 1-1.7-1.13 26.11 26.11 0 0 1-1.79-1.61v11.87a.66.66 0 0 1-.11.37.78.78 0 0 1-.34.26 2.46 2.46 0 0 1-.66.16 9 9 0 0 1-1.08.05 8.73 8.73 0 0 1-1.05-.05 2.66 2.66 0 0 1-.67-.16.69.69 0 0 1-.34-.26.72.72 0 0 1-.09-.37V17.4a.8.8 0 0 1 .08-.38.64.64 0 0 1 .32-.25c.194-.081.4-.132.61-.15a10.32 10.32 0 0 1 1.81 0 2 2 0 0 1 .59.15.73.73 0 0 1 .33.25.7.7 0 0 1 .09.38v3.19a25.06 25.06 0 0 1 2.08-1.92 12.52 12.52 0 0 1 2-1.36 9.51 9.51 0 0 1 2.08-.82 9.88 9.88 0 0 1 6.66.73 8.3 8.3 0 0 1 3 2.74 12.26 12.26 0 0 1 1.67 4 21.9 21.9 0 0 1 .56 4.94zm-4.51.5a21.88 21.88 0 0 0-.28-3.52 10.23 10.23 0 0 0-1-3 5.65 5.65 0 0 0-1.82-2.11 4.86 4.86 0 0 0-2.84-.79 5.7 5.7 0 0 0-1.67.25 6.87 6.87 0 0 0-1.67.79 11.88 11.88 0 0 0-1.78 1.42 22 22 0 0 0-2 2.18V34a18.83 18.83 0 0 0 3.42 3.35 5.74 5.74 0 0 0 3.4 1.16 5 5 0 0 0 2.83-.79 6 6 0 0 0 1.91-2.11c.51-.94.874-1.951 1.08-3a16 16 0 0 0 .42-3.21zM216.92 19v1a2.41 2.41 0 0 1-.11.62.9.9 0 0 1-.2.34.44.44 0 0 1-.33.12 1.46 1.46 0 0 1-.51-.12l-.69-.24a8.904 8.904 0 0 0-.86-.22 4.77 4.77 0 0 0-1-.11 3.34 3.34 0 0 0-1.29.26 5 5 0 0 0-1.33.87 10.86 10.86 0 0 0-1.46 1.61 33.365 33.365 0 0 0-1.69 2.45v15.61a.59.59 0 0 1-.11.36.82.82 0 0 1-.34.25 2.46 2.46 0 0 1-.66.16 9 9 0 0 1-1.08.05 8.73 8.73 0 0 1-1.05-.05 2.66 2.66 0 0 1-.67-.16.72.72 0 0 1-.34-.25.65.65 0 0 1-.09-.36V17.4a.73.73 0 0 1 .08-.36.71.71 0 0 1 .32-.26 1.78 1.78 0 0 1 .61-.16 9.55 9.55 0 0 1 1 0h1c.205.014.406.068.59.16a.83.83 0 0 1 .3.26.65.65 0 0 1 .09.36v3.45a18.51 18.51 0 0 1 1.83-2.32 10.09 10.09 0 0 1 1.62-1.41 5 5 0 0 1 1.52-.71 5.93 5.93 0 0 1 1.52-.2h.78c.306.03.61.08.91.15a8 8 0 0 1 .86.24c.193.056.376.144.54.26a.76.76 0 0 1 .21.25c.04.097.07.197.09.3.031.178.048.359.05.54-.073.267-.11.617-.11 1.05zm9.8-9.62a2.87 2.87 0 0 1-.58 2.08A3.12 3.12 0 0 1 224 12a3.07 3.07 0 0 1-2.1-.54 2.81 2.81 0 0 1-.57-2 2.87 2.87 0 0 1 .58-2.08 3.11 3.11 0 0 1 2.14-.55 3.07 3.07 0 0 1 2.1.54 2.81 2.81 0 0 1 .57 2.01zm-.5 31.75a.59.59 0 0 1-.11.36.82.82 0 0 1-.34.25 2.46 2.46 0 0 1-.66.16 9 9 0 0 1-1.08.05 8.73 8.73 0 0 1-1.05-.05 2.66 2.66 0 0 1-.67-.16.72.72 0 0 1-.34-.25.65.65 0 0 1-.09-.36V17.4c0-.12.03-.237.09-.34a.69.69 0 0 1 .34-.26 2.66 2.66 0 0 1 .67-.16 8.73 8.73 0 0 1 1.05-.05 9 9 0 0 1 1.08.05c.226.023.448.076.66.16a.78.78 0 0 1 .34.26c.07.1.108.218.11.34v23.73zm28.48 0a.59.59 0 0 1-.11.36.82.82 0 0 1-.34.25 2.46 2.46 0 0 1-.66.16 8.74 8.74 0 0 1-1.05.05 9 9 0 0 1-1.08-.05 2.45 2.45 0 0 1-.66-.16.82.82 0 0 1-.34-.25.59.59 0 0 1-.11-.36v-13.9A13.66 13.66 0 0 0 250 24a6.77 6.77 0 0 0-.92-2.14 4 4 0 0 0-1.57-1.37 5 5 0 0 0-2.23-.47 5.62 5.62 0 0 0-3.27 1.16 17.71 17.71 0 0 0-3.43 3.4v16.58a.59.59 0 0 1-.11.36.82.82 0 0 1-.34.25 2.46 2.46 0 0 1-.66.16 9 9 0 0 1-1.08.05 8.73 8.73 0 0 1-1.05-.05 2.66 2.66 0 0 1-.67-.16.72.72 0 0 1-.34-.25.65.65 0 0 1-.09-.36V17.4a.73.73 0 0 1 .08-.36.71.71 0 0 1 .32-.26 1.78 1.78 0 0 1 .61-.16 9.55 9.55 0 0 1 1 0h1c.205.014.406.068.59.16a.83.83 0 0 1 .3.26.65.65 0 0 1 .09.36v3.14a14.59 14.59 0 0 1 4-3.28 8.59 8.59 0 0 1 4-1 8.93 8.93 0 0 1 4 .8 7.21 7.21 0 0 1 2.62 2.15 8.56 8.56 0 0 1 1.44 3.15 18.75 18.75 0 0 1 .44 4.34v14.48l-.03-.05zm19.78-1.74a5.58 5.58 0 0 1-.11 1.21 1.36 1.36 0 0 1-.32.66 2.07 2.07 0 0 1-.63.4 5.17 5.17 0 0 1-1 .3c-.36.08-.743.147-1.15.2a9.38 9.38 0 0 1-1.21.08 9.14 9.14 0 0 1-3.16-.49 5.11 5.11 0 0 1-2.16-1.48 6.07 6.07 0 0 1-1.23-2.5 14.74 14.74 0 0 1-.38-3.57V20.33h-3.32a.71.71 0 0 1-.63-.42 2.94 2.94 0 0 1-.24-1.37 4.57 4.57 0 0 1 .07-.84 2.43 2.43 0 0 1 .17-.57.66.66 0 0 1 .28-.32.79.79 0 0 1 .38-.09h3.3v-5.65c0-.12.03-.237.09-.34a.75.75 0 0 1 .34-.28c.213-.09.44-.148.67-.17a8.73 8.73 0 0 1 1.05-.05 9 9 0 0 1 1.08.05c.228.02.45.078.66.17a.86.86 0 0 1 .34.28c.07.1.108.218.11.34v5.64h6.09a.72.72 0 0 1 .37.09.77.77 0 0 1 .28.32c.087.18.145.372.17.57.037.278.054.56.05.84.03.47-.052.94-.24 1.37a.71.71 0 0 1-.63.42h-6.09v13.24a7.54 7.54 0 0 0 .72 3.7 2.74 2.74 0 0 0 2.6 1.25 4.47 4.47 0 0 0 1.08-.12c.32-.08.6-.16.84-.25l.63-.25a1.17 1.17 0 0 1 .47-.12.51.51 0 0 1 .25.07.44.44 0 0 1 .18.25c.054.163.094.33.12.5.058.263.095.53.11.8z" fill="#000"/></g></svg>